<?xml version="1.0" encoding="utf-8"?>
<!-- Generator: Adobe Illustrator 23.0.1, SVG Export Plug-In . SVG Version: 6.00 Build 0)  -->
<svg version="1.1" xmlns="http://www.w3.org/2000/svg" xmlns:xlink="http://www.w3.org/1999/xlink" x="0px" y="0px"
	 viewBox="107 297 200 200" enable-background="new 107 297 200 200" xml:space="preserve">
<g id="Layer_1" display="none">
	<path display="inline" d="M223.66,351.17c0-9.2-7.46-16.66-16.66-16.66c-9.2,0-16.66,7.46-16.66,16.66
		c0,9.21,7.46,16.67,16.66,16.67C216.2,367.84,223.66,360.38,223.66,351.17z M198.66,351.17c0-4.59,3.73-8.33,8.33-8.33
		c4.6,0,8.34,3.74,8.34,8.33c0,4.6-3.74,8.33-8.34,8.33S198.66,355.77,198.66,351.17z"/>
	<path display="inline" d="M240.33,351.17c0-18.41-14.93-33.33-33.34-33.33c-18.41,0-33.33,14.92-33.33,33.33
		c0,18.41,14.92,33.33,33.33,33.33C225.4,384.5,240.33,369.58,240.33,351.17z M182,351.17c0-13.78,11.22-25,25-25
		c13.78,0,25,11.21,25,25s-11.22,25-25,25C193.22,376.17,182,364.96,182,351.17z"/>
	<path display="inline" d="M265.33,409.5c0-6.18-11.75-11.56-29.21-14.44c0.12-0.89-0.04-1.83-0.51-2.67
		c-0.04-0.05-0.07-0.09-0.1-0.14c1.31-0.91,2.56-1.88,3.77-2.9c0.04,0.04,0.07,0.09,0.12,0.13c1.62,1.63,4.26,1.63,5.9,0
		c1.62-1.63,1.62-4.27,0-5.89c-0.05-0.04-0.1-0.08-0.13-0.12c1.03-1.21,1.99-2.47,2.91-3.77c0.05,0.03,0.09,0.06,0.13,0.09
		c2,1.15,4.54,0.47,5.7-1.52c1.15-1.99,0.46-4.54-1.53-5.69c-0.05-0.03-0.1-0.05-0.15-0.08c0.67-1.43,1.28-2.9,1.82-4.4
		c0.06,0.02,0.11,0.04,0.16,0.05c2.22,0.59,4.5-0.72,5.1-2.94c0.6-2.22-0.72-4.51-2.94-5.1c-0.06-0.02-0.11-0.02-0.17-0.03
		c0.28-1.55,0.49-3.13,0.62-4.72c0.05,0,0.11,0.01,0.17,0.01c2.29,0,4.16-1.86,4.16-4.16c0-2.3-1.87-4.17-4.16-4.17
		c-0.06,0-0.12,0.01-0.17,0.01c-0.13-1.6-0.34-3.17-0.62-4.72c0.06-0.01,0.11-0.02,0.17-0.04c2.22-0.59,3.54-2.88,2.94-5.1
		c-0.6-2.22-2.88-3.54-5.1-2.94c-0.05,0.02-0.1,0.03-0.16,0.05c-0.54-1.5-1.15-2.97-1.82-4.4c0.05-0.02,0.1-0.05,0.15-0.07
		c1.99-1.15,2.67-3.7,1.53-5.69c-1.16-2-3.7-2.68-5.7-1.53c-0.05,0.03-0.09,0.06-0.13,0.09c-0.92-1.3-1.88-2.56-2.91-3.77
		c0.04-0.04,0.09-0.08,0.12-0.12c1.64-1.63,1.64-4.26,0.01-5.89c-1.64-1.63-4.27-1.63-5.9,0c-0.05,0.04-0.09,0.09-0.12,0.13
		c-1.21-1.02-2.47-1.99-3.77-2.9c0.02-0.05,0.06-0.09,0.09-0.14c1.16-1.99,0.48-4.54-1.51-5.69c-2-1.15-4.54-0.47-5.7,1.53
		c-0.02,0.05-0.05,0.1-0.07,0.15c-1.43-0.68-2.89-1.29-4.39-1.82c0.01-0.05,0.02-0.1,0.05-0.16c0.59-2.22-0.73-4.51-2.95-5.1
		c-2.22-0.6-4.5,0.72-5.1,2.94c-0.01,0.06-0.02,0.11-0.04,0.16c-1.55-0.28-3.12-0.48-4.71-0.61c0-0.06,0.01-0.11,0.01-0.17
		c0-2.3-1.87-4.17-4.17-4.17c-2.3,0-4.16,1.86-4.16,4.17c0,0.06,0.01,0.12,0.01,0.17c-1.6,0.13-3.17,0.34-4.72,0.61
		c-0.01-0.05-0.02-0.11-0.04-0.16c-0.59-2.22-2.87-3.54-5.1-2.94c-2.22,0.59-3.54,2.88-2.94,5.1c0.01,0.05,0.03,0.1,0.05,0.16
		c-1.5,0.54-2.97,1.15-4.4,1.82c-0.02-0.05-0.05-0.1-0.07-0.15c-1.15-1.99-3.7-2.68-5.69-1.53c-2,1.15-2.67,3.7-1.53,5.69
		c0.03,0.05,0.06,0.1,0.09,0.14c-1.31,0.91-2.56,1.88-3.77,2.9c-0.04-0.04-0.08-0.09-0.12-0.13c-1.62-1.63-4.26-1.63-5.89,0
		c-1.63,1.63-1.63,4.26,0,5.89c0.04,0.04,0.09,0.08,0.13,0.12c-1.03,1.21-1.99,2.47-2.9,3.78c-0.05-0.03-0.1-0.06-0.15-0.09
		c-1.99-1.15-4.54-0.47-5.69,1.53c-1.15,1.99-0.47,4.54,1.52,5.69c0.05,0.03,0.1,0.05,0.15,0.07c-0.67,1.43-1.28,2.9-1.82,4.4
		c-0.05-0.02-0.1-0.03-0.15-0.05c-2.22-0.59-4.5,0.72-5.1,2.94c-0.6,2.22,0.72,4.51,2.95,5.1c0.05,0.01,0.1,0.02,0.16,0.03
		c-0.27,1.55-0.48,3.13-0.61,4.72c-0.06,0-0.12-0.01-0.18-0.01c-2.3,0-4.16,1.86-4.16,4.17c0,2.3,1.86,4.16,4.16,4.17
		c0.06,0,0.12-0.01,0.18-0.01c0.13,1.6,0.34,3.17,0.61,4.72c-0.06,0.01-0.1,0.02-0.16,0.03c-2.23,0.59-3.55,2.88-2.95,5.1
		c0.6,2.22,2.88,3.54,5.1,2.95c0.06-0.02,0.1-0.04,0.15-0.05c0.54,1.5,1.15,2.97,1.82,4.4c-0.05,0.03-0.1,0.05-0.14,0.08
		c-2,1.15-2.68,3.7-1.53,5.69c1.15,1.99,3.69,2.68,5.69,1.53c0.05-0.03,0.1-0.06,0.15-0.09c0.91,1.31,1.87,2.57,2.9,3.77
		c-0.04,0.04-0.09,0.08-0.13,0.12c-1.63,1.63-1.63,4.27,0,5.89c1.63,1.63,4.27,1.63,5.89,0c0.04-0.04,0.08-0.09,0.12-0.13
		c1.21,1.03,2.47,2,3.77,2.9c-0.03,0.05-0.06,0.09-0.09,0.14c-0.48,0.84-0.64,1.78-0.51,2.67c-17.46,2.88-29.21,8.27-29.21,14.44
		l0,0l0,0v70.83c0,9.2,26.11,16.66,58.32,16.66c32.21,0,58.33-7.46,58.33-16.66L265.33,409.5L265.33,409.5L265.33,409.5z
		 M256.99,467.33c-6.31,3.33-21.19,8.9-50.03,8.82c-12.56-0.04-35.44-1.26-49.96-8.89v-49.18c10.21,4.84,28.77,8.07,49.99,8.07
		c21.22,0,39.79-3.23,50-8.07V467.33z M177.54,380.63c-7.87-7.87-12.2-18.33-12.2-29.46s4.33-21.59,12.2-29.46
		c7.87-7.87,18.33-12.2,29.46-12.2c11.13,0,21.59,4.33,29.45,12.2c7.87,7.87,12.21,18.33,12.21,29.46s-4.33,21.59-12.21,29.46
		c-7.86,7.87-18.32,12.2-29.45,12.2C195.87,392.84,185.4,388.5,177.54,380.63z M160.68,408.39c2.85-1.34,6.71-2.6,11.15-3.64
		c9.79-2.31,22.29-3.58,35.16-3.58c12.88,0,25.37,1.27,35.17,3.58c4.44,1.04,8.3,2.31,11.16,3.64c0.85,0.4,1.55,0.78,2.1,1.11
		c-0.55,0.33-1.24,0.71-2.1,1.11c-2.86,1.34-6.71,2.6-11.16,3.64c-9.8,2.31-22.29,3.58-35.17,3.58c-12.88,0-25.37-1.27-35.16-3.58
		c-4.44-1.04-8.3-2.31-11.15-3.64c-0.87-0.4-1.56-0.78-2.11-1.11C159.13,409.17,159.82,408.79,160.68,408.39z M253.32,481.44
		c-2.86,1.33-6.71,2.59-11.16,3.64c-9.8,2.31-22.29,3.58-35.17,3.58c-12.88,0-25.37-1.27-35.16-3.58c-4.44-1.04-8.3-2.31-11.15-3.64
		c-2.11-0.99-3.18-1.79-3.68-2.23v-2.75c8.75,3.71,24.34,7.96,49.94,8.03c0.23,0,0.46,0,0.69,0c25.16,0,40.52-4.13,49.36-7.92v2.64
		C256.49,479.65,255.42,480.45,253.32,481.44z"/>
	<path display="inline" d="M207,442.83c-6.89,0-12.5,5.6-12.5,12.5c0,6.88,5.61,12.5,12.5,12.5c6.9,0,12.5-5.61,12.5-12.5
		C219.5,448.43,213.89,442.83,207,442.83z M207,459.49c-2.29,0-4.16-1.87-4.16-4.16c0-2.3,1.87-4.17,4.16-4.17
		c2.3,0,4.17,1.87,4.17,4.17C211.16,457.62,209.3,459.49,207,459.49z"/>
	<path display="inline" d="M202.83,434.49c0,2.3,1.86,4.16,4.16,4.16c2.3,0,4.17-1.86,4.17-4.16c0-2.3-1.87-4.16-4.17-4.16
		C204.69,430.33,202.83,432.19,202.83,434.49z"/>
	<path display="inline" d="M198.16,442.32c1.62-1.62,1.62-4.26,0-5.89c-1.63-1.63-4.27-1.63-5.89,0c-1.62,1.63-1.62,4.27,0,5.89
		C193.89,443.95,196.53,443.95,198.16,442.32z"/>
	<path display="inline" d="M221.73,442.32c1.62-1.62,1.62-4.26,0-5.89c-1.62-1.63-4.27-1.63-5.89,0c-1.62,1.63-1.62,4.27,0,5.89
		C217.46,443.95,220.11,443.95,221.73,442.32z"/>
</g>
<g id="Layer_2" display="none">
	<path display="inline" d="M280.2,398.37l11.34-11.34c20.61-20.61,20.61-53.96,0-74.57c-20.61-20.61-53.96-20.61-74.57,0
		c-4.4,4.4-90.53,90.53-94.52,94.52c-20.61,20.61-20.61,53.96,0,74.57c20.61,20.61,53.96,20.61,74.57,0l11.34-11.34
		c9.07,15.98,26.24,26.79,45.89,26.79c29.07,0,52.73-23.65,52.73-52.73C306.99,424.61,296.18,407.44,280.2,398.37z M201.53,444.26
		c0,4.94,0.68,9.71,1.96,14.25l-14.75,14.75c-16.03,16.03-41.97,16.03-58,0c-16.03-16.03-16.03-41.97,0-58l42.76-42.76l39.26,39.26
		C205.73,420.72,201.53,432.01,201.53,444.26z M248.4,484.85c-19.85-2.85-35.15-19.97-35.15-40.59c0-20.62,15.3-37.74,35.15-40.59
		V484.85z M220.97,403.4l-39.18-39.18l43.47-43.47c16.03-16.03,41.97-16.03,58,0c16.03,16.03,16.03,41.97,0,58l-14.75,14.75
		c-4.53-1.27-9.31-1.96-14.25-1.96C241.65,391.53,230.05,395.99,220.97,403.4z M260.12,484.85v-81.18
		c19.85,2.85,35.15,19.97,35.15,40.59C295.27,464.88,279.97,482,260.12,484.85z"/>
</g>
<g id="Layer_3">
	<path d="M204.84,473.14c0.67,0.27,1.4,0.42,2.16,0.42h70.31c3.23,0,5.86,2.63,5.86,5.86c0,3.23-2.63,5.86-5.86,5.86h-35.16
		c-3.24,0-5.86,2.62-5.86,5.86s2.62,5.86,5.86,5.86h35.16c9.69,0,17.58-7.89,17.58-17.58s-7.89-17.58-17.58-17.58h-27.55
		c6.98-3.96,13.5-8.92,19.39-14.81c16.6-16.6,25.74-38.67,25.74-62.15c0-48.57-39.31-87.89-87.89-87.89
		c-48.57,0-87.89,39.31-87.89,87.89C119.11,434,159.02,472.01,204.84,473.14L204.84,473.14z M167.02,320.03
		c1.15-0.71,2.31-1.39,3.49-2.04c-10.89,54.77,31.19,105.08,86.23,105.08c5.76,0,11.51-0.57,17.16-1.69
		c-0.65,1.18-1.32,2.35-2.04,3.49c-29.75,18.39-69.03,13.86-93.87-10.98S148.64,349.78,167.02,320.03L167.02,320.03z M199.01,384.89
		c20.27-23.46,52.32-31.85,80.66-22.93c0.99,3.14,1.77,6.35,2.35,9.62c-24.34-0.13-48.04,9.81-65.18,28.45
		C210.27,396.02,204.26,390.99,199.01,384.89L199.01,384.89z M283.15,383.32c0.01,0.52,0.02,1.05,0.02,1.57
		c0,7.89-1.2,15.6-3.5,22.92c-7.45,2.34-15.13,3.49-22.76,3.49c-10,0-19.92-1.96-29.15-5.74
		C242.5,390.84,262.46,382.89,283.15,383.32L283.15,383.32z M271.86,344.91c0.71,1.15,1.39,2.31,2.04,3.5
		c-29.53-5.87-60.7,3.64-81.95,26.8c-4.46-7.26-7.66-15.19-9.5-23.43C207.54,330.33,243.68,327.47,271.86,344.91L271.86,344.91z
		 M253.57,324.6c-24.93-6.33-51.68-1.61-72.91,13.69c-0.38-8.71,0.73-17.54,3.41-26.07c7.32-2.3,15.03-3.5,22.93-3.5
		C224.07,308.72,240.29,314.3,253.57,324.6L253.57,324.6z M146.7,338.34c-16.39,64.57,42.23,123.31,106.92,106.84
		c-13.45,10.55-29.69,16.27-46.62,16.27c-40.36,0-76.17-33.25-76.17-76.56C130.83,367.82,136.41,351.61,146.7,338.34L146.7,338.34z
		 M146.7,338.34"/>
</g>
<g id="Layer_4" display="none">
	<g display="inline">
		<path d="M299.71,401.28h-12.87L261.2,333.2c-1.07-2.84-3.78-4.71-6.82-4.71h-14.82V312.3c0-4.02-3.26-7.28-7.28-7.28h-50.32
			c-4.02,0-7.28,3.26-7.28,7.28v16.19h-14.82c-3.03,0-5.74,1.88-6.81,4.71l-25.64,68.07h-12.87c-4.02,0-7.28,3.26-7.28,7.28
			c0,4.02,3.26,7.28,7.28,7.28h12.87l25.64,68.07c1.07,2.84,3.78,4.72,6.81,4.72h94.52c3.03,0,5.74-1.88,6.82-4.72l25.65-68.07
			h12.87c4.02,0,7.28-3.26,7.28-7.28C307,404.53,303.74,401.28,299.71,401.28L299.71,401.28z M189.24,319.58H225v8.91h-35.76V319.58
			z M164.89,343.05h84.46l21.93,58.23h-20.25L239.1,369.6c-1.07-2.84-3.78-4.71-6.81-4.71h-50.32c-3.03,0-5.74,1.88-6.81,4.71
			l-11.93,31.68h-20.26L164.89,343.05z M213.21,379.44v21.84h-12.17v-21.84H213.21z M189.39,401.28h-10.62l8.23-21.84h2.39V401.28z
			 M189.39,415.84v21.83H187l-8.23-21.83H189.39z M201.04,415.84h12.17v21.83h-12.17V415.84z M224.86,415.84h10.61l-8.23,21.83
			h-2.38V415.84z M224.86,401.28v-21.84h2.39l8.23,21.84H224.86z M249.35,474.06h-84.45l-21.94-58.23h20.26l11.93,31.68
			c1.07,2.84,3.78,4.72,6.81,4.72h50.33c3.03,0,5.74-1.88,6.81-4.72l11.93-31.68h20.26L249.35,474.06z M249.35,474.06"/>
	</g>
</g>
<g id="Layer_5" display="none">
	<g display="inline">
		<path fill-rule="evenodd" clip-rule="evenodd" fill="#231F20" d="M235.73,330.71c6.19-0.22,12.37-0.06,18.57-0.06
			c0.76,0,1.52,0,2.56,0v-32.2c-3.31-0.32-6.76-0.8-10.22-0.96c-6.35-0.28-12.7-0.6-19.06-0.45c-9.7,0.21-18.88,2.57-26.9,8.31
			c-9.19,6.62-14.23,15.91-16.16,26.87c-0.8,4.52-1,9.22-1.12,13.81c-0.18,7.23-0.03,14.44-0.02,21.67v2.71h-30.8v35.96h30.62v90.37
			h37.42v-90.22h30.52c1.56-11.97,3.09-23.8,4.69-36.12c-2.45,0-4.66-0.02-6.86,0c-8.68,0.04-28.6,0-28.6,0s0.08-17.82,0.3-25.55
			C220.97,334.24,227.25,331.01,235.73,330.71z"/>
	</g>
</g>
<g id="Layer_6" display="none">
	<g display="inline">
		<g>
			<path fill-rule="evenodd" clip-rule="evenodd" fill="#231F20" d="M127.58,463.6c-7.55-2.48-12.62-7.41-15.35-14.9
				c-6.65-18.28-8.61-94.73,4.19-109.78c4.37-5.15,10-8.18,16.7-8.89c34.48-3.71,141.05-3.19,153.33,1.25
				c7.19,2.59,12.31,7.3,15.08,14.5c7.28,18.89,7.53,87.62-0.95,105.83c-2.31,4.93-6.06,8.43-10.82,10.91
				C276.89,469.26,144.5,469.17,127.58,463.6z M182.35,427.77c20.74-10.75,41.28-21.41,62.1-32.2c-20.84-10.89-41.4-21.6-62.1-32.41
				C182.35,384.77,182.35,406.14,182.35,427.77z"/>
		</g>
	</g>
</g>
<g id="Layer_7" display="none">
	<path display="inline" d="M244.5,297h-75c-34.51,0-62.5,27.99-62.5,62.5v75c0,34.51,27.99,62.5,62.5,62.5h75
		c34.51,0,62.5-27.99,62.5-62.5v-75C307,324.99,279.01,297,244.5,297z M288.25,434.5c0,24.12-19.62,43.75-43.75,43.75h-75
		c-24.12,0-43.75-19.62-43.75-43.75v-75c0-24.12,19.62-43.75,43.75-43.75h75c24.12,0,43.75,19.62,43.75,43.75V434.5z M207,347
		c-27.61,0-50,22.39-50,50s22.39,50,50,50s50-22.39,50-50S234.61,347,207,347z M207,428.25c-17.23,0-31.25-14.02-31.25-31.25
		c0-17.24,14.02-31.25,31.25-31.25s31.25,14.01,31.25,31.25C238.25,414.23,224.23,428.25,207,428.25z M260.75,336.59
		c-3.68,0-6.66,2.98-6.66,6.66s2.98,6.66,6.66,6.66s6.66-2.98,6.66-6.66S264.43,336.59,260.75,336.59z"/>
</g>
</svg>
