<svg id="Layer_11" data-name="Layer 11" xmlns="http://www.w3.org/2000/svg" viewBox="0 0 197.68 199.24"><title>cat_house</title><path d="M113.43,151.3" transform="translate(-1.82 -0.6)"/><path d="M110.21,156.19a30.29,30.29,0,0,1-6.78-1.06,24.71,24.71,0,0,0-3.86-.71,24.47,24.47,0,0,0-4.17.74,29.79,29.79,0,0,1-6.6,1c-5.36,0-8.82-3.5-8.82-8.91,0-10.13,8.78-18.38,19.59-18.38s19.58,8.25,19.58,18.38C119.15,152.69,115.64,156.19,110.21,156.19Zm2.34-7.21Zm-13-4.35a27.3,27.3,0,0,1,6.08,1c1.29.3,2.6.6,3.65.73-.54-4.29-4.7-7.64-9.73-7.64s-9.19,3.34-9.74,7.62c1-.14,2.22-.42,3.33-.68A29.44,29.44,0,0,1,99.57,144.63Z" transform="translate(-1.82 -0.6)"/><path d="M83.26,114.64c-5.36,0-9.71,5-9.71,11s4.35,11,9.71,11,9.71-4.95,9.71-11S88.61,114.64,83.26,114.64Zm0,14.36c-1,0-2-1.43-2-3.33s1.06-3.34,2-3.34,2,1.43,2,3.34S84.21,129,83.26,129Z" transform="translate(-1.82 -0.6)"/><path d="M100.07,109.12c-5.35,0-9.71,4.95-9.71,11s4.36,11,9.71,11,9.71-4.94,9.71-11S105.42,109.12,100.07,109.12Zm0,14.36c-.95,0-2-1.42-2-3.33s1.07-3.33,2-3.33,2,1.42,2,3.33S101,123.48,100.07,123.48Z" transform="translate(-1.82 -0.6)"/><path d="M116.89,114.64c-5.36,0-9.71,5-9.71,11s4.35,11,9.71,11,9.71-4.95,9.71-11S122.24,114.64,116.89,114.64Zm0,14.36c-1,0-2-1.43-2-3.34s1.06-3.33,2-3.33,2,1.43,2,3.33S117.84,129,116.89,129Z" transform="translate(-1.82 -0.6)"/><path d="M189.59,79.93" transform="translate(-1.82 -0.6)"/><path d="M164.11,199.84H37.2a13,13,0,0,1-13-13V100a12.78,12.78,0,0,1-2.24.19A13,13,0,0,1,11.58,95L4.4,85.41A13,13,0,0,1,7,67.24L92.69,3.18A12.83,12.83,0,0,1,100.45.6h.32a12.91,12.91,0,0,1,7.86,2.58L194.3,67.24a13,13,0,0,1,2.62,18.17L189.74,95a13,13,0,0,1-10.4,5.2,12.78,12.78,0,0,1-2.24-.19v86.84A13,13,0,0,1,164.11,199.84ZM35.87,93.05v93.81a1.34,1.34,0,0,0,1.33,1.33H164.11a1.34,1.34,0,0,0,1.34-1.33V93.05L100.66,44.6ZM100.66,31.5a5.85,5.85,0,0,1,3.49,1.16l74.4,55.64a1.35,1.35,0,0,0,1.86-.27l7.18-9.59a1.34,1.34,0,0,0-.27-1.87L101.65,12.51a1.26,1.26,0,0,0-.78-.26h-.38a1.37,1.37,0,0,0-.83.26L14,76.57a1.34,1.34,0,0,0-.27,1.87L20.91,88a1.34,1.34,0,0,0,1.86.27l74.4-55.64A5.79,5.79,0,0,1,100.66,31.5Z" transform="translate(-1.82 -0.6)"/><path d="M100.74,175.56" transform="translate(-1.82 -0.6)"/><path d="M100.66,185a5.8,5.8,0,0,1-2.39-.51,159.2,159.2,0,0,1-28.9-17.6A97.52,97.52,0,0,1,49.1,146.56c-6.47-9.1-9.75-18.45-9.75-27.77A36.73,36.73,0,0,1,76,82.11a36.31,36.31,0,0,1,24.62,9.47,36.28,36.28,0,0,1,24.62-9.47A36.72,36.72,0,0,1,162,118.79c0,10-3.26,19.84-9.71,29.11a89,89,0,0,1-20.39,20.31,139.72,139.72,0,0,1-29.08,16.41A5.7,5.7,0,0,1,100.66,185ZM76,93.76a25.06,25.06,0,0,0-25,25c0,11.89,7.46,24.08,22.17,36.23a153.21,153.21,0,0,0,27.64,17.78,131.39,131.39,0,0,0,27.47-16.59c14.62-11.76,22-24.35,22-37.42a25,25,0,0,0-45-15.08,5.84,5.84,0,0,1-9.3,0A24.85,24.85,0,0,0,76,93.76Z" transform="translate(-1.82 -0.6)"/></svg>