<svg id="Layer_12" data-name="Layer 12" xmlns="http://www.w3.org/2000/svg" viewBox="0 0 143.99 200.05"><title>cat_food</title><path d="M145.77,185.22" transform="translate(-28.05 -0.16)"/><path d="M100,200.21c-34.67,0-72-8-72-25.46V107.61c0-5,2.92-9.37,8.69-13.11-.4-3.06.41-6.06,1.08-8.56a16.29,16.29,0,0,0,.79-4.06,17.88,17.88,0,0,0-2.34-3.08C33.86,76,30.9,72.58,30.9,67.86s3-8.16,5.35-10.92a17.34,17.34,0,0,0,2.36-3.12,16.25,16.25,0,0,0-.78-4c-.94-3.49-2.1-7.81-.1-12s6.17-6,9.49-7.43a17.24,17.24,0,0,0,3.58-1.85,17.32,17.32,0,0,0,1-3.9c.67-3.55,1.5-8,5.13-10.86S65,11.08,68.6,11.21a16.57,16.57,0,0,0,4.1-.13,17.42,17.42,0,0,0,2.55-3c2.16-2.94,4.84-6.58,9.41-7.62S93,1.5,96.2,3.17A16.45,16.45,0,0,0,100,4.86a16.22,16.22,0,0,0,3.85-1.69C107,1.5,111-.59,115.43.43s7.25,4.68,9.4,7.61a17.65,17.65,0,0,0,2.57,3.05,16.83,16.83,0,0,0,4,.12c3.62-.13,8.1-.3,11.71,2.58s4.46,7.31,5.13,10.86a16.62,16.62,0,0,0,1,3.93,17.23,17.23,0,0,0,3.53,1.82c3.35,1.45,7.49,3.24,9.51,7.44s.85,8.47-.09,11.93a16.67,16.67,0,0,0-.78,4.06,17.89,17.89,0,0,0,2.34,3.09c2.4,2.78,5.37,6.21,5.37,10.94s-3,8.16-5.35,10.91a17.85,17.85,0,0,0-2.37,3.13,16.92,16.92,0,0,0,.79,4c.67,2.51,1.48,5.51,1.08,8.58,5.77,3.73,8.7,8.14,8.7,13.11v67.14C172,192.24,134.72,200.21,100,200.21ZM39.92,122.57v52.18c.08.78,2.91,4.51,15.09,8.11C67,186.4,83,188.34,100,188.34s33.09-1.94,45-5.48h0c12.18-3.6,15-7.33,15.09-8.13V122.57c-14.73,7.69-40.11,10.5-60.13,10.5S54.65,130.26,39.92,122.57ZM100,94C83,94,67,96,55,99.49h0c-12.18,3.6-15,7.33-15.09,8.14.08.77,2.91,4.5,15.09,8.1C67,119.26,83,121.2,100,121.2s33.09-1.94,45-5.47c12.19-3.61,15-7.33,15.1-8.14-.09-.77-2.91-4.5-15.1-8.1C133.13,96,117.14,94,100,94ZM50.18,79.25c.77,3.39-.1,6.79-.84,9.55,13-4.25,31.19-6.65,50.7-6.65s37.66,2.4,50.71,6.65c-.74-2.76-1.61-6.16-.84-9.55s3-6,5-8.23a21.21,21.21,0,0,0,2.42-3.16,19.15,19.15,0,0,0-2.41-3.14c-2-2.29-4.19-4.86-5-8.25s.14-7,.9-9.77a22.81,22.81,0,0,0,.78-3.69,22,22,0,0,0-3.44-1.71c-2.78-1.21-5.92-2.57-8.12-5.32s-2.87-6.3-3.41-9.14a22.42,22.42,0,0,0-.9-3.71,22.67,22.67,0,0,0-3.8-.06c-2.91.11-6.5.24-9.69-1.3s-5.17-4.26-7-6.69a22.74,22.74,0,0,0-2.47-3,23.48,23.48,0,0,0-3.32,1.56c-2.63,1.39-5.84,3.09-9.45,3.09s-6.82-1.7-9.39-3.07a23.57,23.57,0,0,0-3.38-1.57,21.83,21.83,0,0,0-2.46,3c-1.78,2.43-3.8,5.18-7,6.7s-6.79,1.41-9.67,1.3a22.86,22.86,0,0,0-3.82.06,22.18,22.18,0,0,0-.9,3.71c-.54,2.84-1.2,6.37-3.41,9.14s-5.35,4.11-8.12,5.32A22.63,22.63,0,0,0,48.49,43a24,24,0,0,0,.78,3.66c.76,2.83,1.7,6.31.91,9.8s-3,6-5,8.23a19.63,19.63,0,0,0-2.42,3.16A20.55,20.55,0,0,0,45.21,71c2,2.28,4.2,4.85,5,8.25ZM48.31,43.17Zm.19-.4Zm103.08,0ZM64.13,23.19Zm.35-.27Zm23-11Zm25.15,0Z" transform="translate(-28.05 -0.16)"/><path d="M113.43,178.83" transform="translate(-28.05 -0.16)"/><path d="M110.21,183.71a30.27,30.27,0,0,1-6.78-1.05,23.59,23.59,0,0,0-3.86-.71,23.52,23.52,0,0,0-4.17.74,29.77,29.77,0,0,1-6.6,1c-5.36,0-8.82-3.49-8.82-8.9,0-10.14,8.78-18.38,19.59-18.38s19.58,8.24,19.58,18.38C119.15,180.22,115.64,183.71,110.21,183.71Zm2.34-7.2Zm-13-4.35a27.85,27.85,0,0,1,6.08,1c1.29.3,2.6.61,3.65.74-.54-4.29-4.7-7.64-9.73-7.64s-9.19,3.33-9.74,7.62c1-.14,2.22-.43,3.33-.69A29.41,29.41,0,0,1,99.57,172.16Z" transform="translate(-28.05 -0.16)"/><path d="M83.26,142.17c-5.36,0-9.71,4.94-9.71,11s4.35,11,9.71,11,9.71-4.94,9.71-11S88.61,142.17,83.26,142.17Zm0,14.35c-1,0-2-1.42-2-3.33s1.06-3.33,2-3.33,2,1.42,2,3.33S84.21,156.52,83.26,156.52Z" transform="translate(-28.05 -0.16)"/><path d="M100.07,136.65c-5.35,0-9.71,4.94-9.71,11s4.36,11,9.71,11,9.71-4.95,9.71-11S105.42,136.65,100.07,136.65Zm0,14.36c-.95,0-2-1.43-2-3.34s1.07-3.33,2-3.33,2,1.43,2,3.33S101,151,100.07,151Z" transform="translate(-28.05 -0.16)"/><path d="M116.89,142.17c-5.36,0-9.71,4.94-9.71,11s4.35,11,9.71,11,9.71-4.94,9.71-11S122.24,142.17,116.89,142.17Zm0,14.35c-1,0-2-1.42-2-3.33s1.06-3.33,2-3.33,2,1.42,2,3.33S117.84,156.52,116.89,156.52Z" transform="translate(-28.05 -0.16)"/></svg>