<svg id="Layer_14" data-name="Layer 14" xmlns="http://www.w3.org/2000/svg" viewBox="0 0 199.12 133.08"><defs><style>.cls-1,.cls-2{stroke:#000;stroke-miterlimit:10;}.cls-1{stroke-width:4.87px;}.cls-2{stroke-width:4px;}</style></defs><title>cat</title><path class="cls-1" d="M126.26,92.8a7.2,7.2,0,1,0,7.22,7.18,7.2,7.2,0,0,0-7.22-7.18Zm0,0" transform="translate(-0.57 -39.43)"/><path class="cls-1" d="M78.31,100a7.2,7.2,0,1,0-7.2,7.22,7.2,7.2,0,0,0,7.2-7.22Zm0,0" transform="translate(-0.57 -39.43)"/><path class="cls-2" d="M121.05,137.66c-9.09,3.11-15.34-2.81-18.08-6.28a12.45,12.45,0,0,0,9.26-12.31,3.33,3.33,0,0,0-3.33-3.33H90a3.33,3.33,0,0,0-3.33,3.33,12.42,12.42,0,0,0,8.47,12.07,23.11,23.11,0,0,1-3.9,4,14.44,14.44,0,0,1-14.35,2.55A3.33,3.33,0,1,0,74.73,144,22.34,22.34,0,0,0,82,145.21a21.37,21.37,0,0,0,13.36-4.87A29.23,29.23,0,0,0,99,136.93a29.36,29.36,0,0,0,3.62,3.41A21.37,21.37,0,0,0,116,145.21a22.33,22.33,0,0,0,7.26-1.26,3.33,3.33,0,1,0-2.16-6.29ZM99.44,125.17a5.89,5.89,0,0,1-5.24-2.77h10.5a5.91,5.91,0,0,1-5.26,2.77Zm0,0" transform="translate(-0.57 -39.43)"/><path d="M172.51,126.36" transform="translate(-0.57 -39.43)"/><path d="M101.26,172.51c-22.86,0-44.43-6.68-60.74-18.79-.69-.51-1.39-1.05-2.08-1.6l-28.17,2.21a4.52,4.52,0,0,1-.51,0,6.48,6.48,0,0,1-.51-12.94l17.15-1.35c-.8-1-1.58-2.1-2.31-3.17h-17a6.49,6.49,0,0,1,0-13H17.43a53.43,53.43,0,0,1-2.61-10.65l-6-1.46a6.48,6.48,0,1,1,3.08-12.59l2.82.69a56.2,56.2,0,0,1,11-26.52l.09-.12L24.7,46.19a6.49,6.49,0,0,1,10.07-5.67L51.68,51.8a100.2,100.2,0,0,1,24.53-9C80.84,41.75,97,40,101.26,40c1,0,11.5.47,16.08,1.11a111.37,111.37,0,0,1,13.25,2.73,99,99,0,0,1,19.47,7.52l16.28-10.85a6.48,6.48,0,0,1,10.07,5.66l-1,25.36c.12.13.23.26.34.4a56.46,56.46,0,0,1,12,27.42l.6-.15a6.48,6.48,0,1,1,3.08,12.59l-3.62.89a52.23,52.23,0,0,1-2.68,11.22h8.11a6.49,6.49,0,0,1,0,13H178.44c-.77,1.13-1.58,2.24-2.44,3.34l15,1.18a6.47,6.47,0,0,1,5.95,7,6.5,6.5,0,0,1-6.45,6,4.1,4.1,0,0,1-.5,0l-26.11-2.05c-.64.51-1.25,1-1.87,1.44C145.72,165.83,124.14,172.51,101.26,172.51ZM60,150.42a95.06,95.06,0,0,0,41.26,9.12,95.38,95.38,0,0,0,41-9l-2-.16a6.48,6.48,0,0,1,1-12.92l18.33,1.44c.72-.67,1.43-1.36,2.11-2.05H138.05a6.49,6.49,0,0,1,0-13h33a42.27,42.27,0,0,0,2.93-7.84l-31,7.58a6.62,6.62,0,0,1-1.54.18,6.48,6.48,0,0,1-1.53-12.78L175,102.47a39.7,39.7,0,0,0-2.48-10.33,6.48,6.48,0,0,1-4.33,1.66H168a6.49,6.49,0,0,1-6.23-6.74l1.19-28.67-17.84,11.9a6.49,6.49,0,0,1-10-6.66,6.49,6.49,0,0,1,2.31-3.79,88.63,88.63,0,0,0-10.24-3.46A95.58,95.58,0,0,0,115.51,54c-3.56-.51-13.43-1-14.26-1a212.57,212.57,0,0,0-22.14,2.46,90.87,90.87,0,0,0-15,4.79A6.5,6.5,0,0,1,65,68.49a6.47,6.47,0,0,1-9,1.79L38.19,58.38,39.39,87a6.5,6.5,0,0,1-6.21,6.75h-.27a6.46,6.46,0,0,1-3.22-.86A40.2,40.2,0,0,0,27.45,103l33,8a6.48,6.48,0,0,1-1.54,12.78,6.13,6.13,0,0,1-1.54-.19l-28.58-7a41.87,41.87,0,0,0,2.77,7.25H62.2a6.49,6.49,0,0,1,0,13H40.83c.63.64,1.28,1.27,1.94,1.88L59,137.5a6.48,6.48,0,1,1,1,12.92Z" transform="translate(-0.57 -39.43)"/></svg>