<svg id="Layer_13" data-name="Layer 13" xmlns="http://www.w3.org/2000/svg" viewBox="0 0 200.21 200.21"><defs><style>.cls-1{fill:none;stroke:#000;stroke-miterlimit:10;stroke-width:12px;}</style></defs><title>search</title><path d="M106.27,112.78" transform="translate(-0.05 -0.24)"/><path d="M101.6,119.87a44.2,44.2,0,0,1-9.83-1.53,34.62,34.62,0,0,0-5.61-1,34.89,34.89,0,0,0-6,1.07,43.17,43.17,0,0,1-9.57,1.49c-7.78,0-12.8-5.07-12.8-12.92,0-14.7,12.75-26.66,28.41-26.66s28.41,12,28.41,26.66C114.57,114.8,109.48,119.87,101.6,119.87Zm3.4-10.46ZM86.16,103.1A39.78,39.78,0,0,1,95,104.51c1.88.43,3.79.88,5.31,1.06-.79-6.22-6.82-11.08-14.13-11.08S72.84,99.33,72,105.54c1.44-.2,3.22-.61,4.84-1A42.51,42.51,0,0,1,86.16,103.1Z" transform="translate(-0.05 -0.24)"/><path d="M62.51,59.61c-7.77,0-14.09,7.17-14.09,16s6.32,16,14.09,16,14.08-7.17,14.08-16S70.27,59.61,62.51,59.61Zm0,20.82c-1.38,0-2.93-2.07-2.93-4.83s1.55-4.84,2.93-4.84,2.92,2.07,2.92,4.84S63.89,80.43,62.51,80.43Z" transform="translate(-0.05 -0.24)"/><path d="M86.9,51.6c-7.77,0-14.08,7.18-14.08,16s6.31,16,14.08,16S101,76.41,101,67.59,94.66,51.6,86.9,51.6Zm0,20.83c-1.38,0-2.93-2.07-2.93-4.84s1.55-4.83,2.93-4.83,2.92,2.07,2.92,4.83S88.28,72.43,86.9,72.43Z" transform="translate(-0.05 -0.24)"/><path d="M111.29,59.61c-7.77,0-14.08,7.17-14.08,16s6.31,16,14.08,16,14.08-7.17,14.08-16S119.05,59.61,111.29,59.61Zm0,20.82c-1.38,0-2.93-2.07-2.93-4.84s1.55-4.83,2.93-4.83,2.93,2.07,2.93,4.83S112.67,80.43,111.29,80.43Z" transform="translate(-0.05 -0.24)"/><circle class="cls-1" cx="85.63" cy="85.63" r="53.05"/><path class="cls-1" d="M155.2,129.4l33.67,33.66a18.38,18.38,0,0,1-26,26L127.41,153.6" transform="translate(-0.05 -0.24)"/><circle class="cls-1" cx="85.63" cy="85.63" r="79.63"/></svg>